<svg width="25" height="25" viewBox="0 0 25 25" fill="none" xmlns="http://www.w3.org/2000/svg">
<path d="M13 11.7168C12.3438 11.7168 11.875 12.2324 11.875 12.8418C11.9219 16.2637 11.4531 19.498 10.5625 22.7793C10.4219 23.248 10.6562 24.1855 11.6406 24.1855C12.1562 24.1855 12.5781 23.9043 12.7188 23.3887C13.375 21.1387 14.1719 17.5293 14.125 12.8418C14.125 12.2324 13.6094 11.7168 13 11.7168ZM12.9531 7.91992C10.0938 7.91992 8.07812 10.123 8.125 12.6543C8.125 14.9043 7.9375 17.1543 7.46875 19.3105C7.375 19.9199 7.75 20.5293 8.35938 20.6699C8.96875 20.7637 9.57812 20.3887 9.67188 19.7793C10.1875 17.4355 10.375 15.0449 10.375 12.6074C10.3281 11.3887 11.3125 10.1699 12.9062 10.1699C14.3594 10.1699 15.5781 11.3418 15.625 12.748C15.625 14.998 15.4844 17.2949 15.1094 19.498C15.0156 20.1074 15.4375 20.6699 16.0469 20.7637C16.9844 20.9512 17.3125 20.0605 17.3125 19.873C17.7344 17.5293 17.875 15.0918 17.875 12.7012C17.8281 10.123 15.625 7.9668 12.9531 7.91992ZM7.75 6.98242C7.28125 6.60742 6.57812 6.6543 6.15625 7.12305C4.98438 8.62305 4.32812 10.498 4.375 12.373C4.375 14.1543 4.23438 15.9355 3.90625 17.623C3.8125 18.2793 4.23438 18.8418 4.84375 18.9355C5.78125 19.123 6.10938 18.2793 6.15625 18.0449C6.48438 16.1699 6.625 14.248 6.625 12.373C6.57812 10.9668 7.04688 9.6543 7.9375 8.57617C8.3125 8.06055 8.21875 7.35742 7.75 6.98242ZM12.9062 4.07617C12.1562 4.0293 11.4531 4.12305 10.75 4.31055C10.1406 4.45117 9.76562 5.06055 9.90625 5.62305C10.0469 6.23242 10.6562 6.60742 11.2656 6.4668C11.7812 6.37305 12.2969 6.32617 12.8594 6.32617C16.375 6.37305 19.3281 9.18555 19.375 12.6074C19.375 14.3887 19.2812 16.1699 19.0938 17.9512C19.0469 18.5605 19.4688 19.123 20.0781 19.1699C20.875 19.2637 21.2969 18.6543 21.3438 18.1855C21.5312 16.5449 21.625 14.9043 21.625 13.2168C21.625 12.9824 21.625 12.7949 21.625 12.5605C21.5312 7.9668 17.6406 4.12305 12.9062 4.07617ZM24.7188 9.74805C24.5781 9.13867 23.9688 8.76367 23.3594 8.9043C22.75 9.04492 22.375 9.60742 22.5156 10.2168C22.7031 11.248 22.75 11.998 22.7031 13.123C22.7031 13.7324 23.2188 14.248 23.8281 14.248C24.4844 14.248 24.9531 13.7793 24.9531 13.123C25 12.0918 25 11.0605 24.7188 9.74805ZM22.7969 5.48242C20.5469 2.24805 16.7969 0.279297 12.8125 0.232422C9.57812 0.185547 6.53125 1.35742 4.28125 3.60742C2.125 5.81055 0.953125 8.7168 1 11.7637V12.7949C0.953125 13.4043 1.46875 13.9199 2.07812 13.9199C2.07812 13.9199 2.07812 13.9199 2.125 13.9199C2.6875 13.9199 3.20312 13.4512 3.20312 12.8418L3.25 11.7168C3.20312 9.2793 4.14062 6.98242 5.875 5.20117C7.70312 3.41992 10.1406 2.43555 12.8125 2.48242C16.0469 2.5293 19.0938 4.12305 20.9688 6.79492C21.3438 7.31055 22.0469 7.4043 22.5625 7.07617C23.0312 6.70117 23.1719 5.99805 22.7969 5.48242Z" fill="#024E82"/>
</svg>
