<svg width="24" height="24" viewBox="0 0 24 24" fill="none" xmlns="http://www.w3.org/2000/svg">
<path d="M9.9375 10.7324C10.2188 10.7324 10.5 10.4512 10.5 10.1699V7.91992C10.5 7.5918 10.2188 7.35742 9.9375 7.35742H5.34375C6.84375 5.29492 9.23438 3.93555 12 3.93555C16.5469 3.93555 20.25 7.63867 20.25 12.1855C20.25 16.7793 16.5469 20.4355 12 20.4355C9.89062 20.4355 7.96875 19.6855 6.51562 18.373C6.28125 18.1855 5.95312 18.1855 5.76562 18.4199L4.17188 20.0137C3.9375 20.248 3.9375 20.623 4.17188 20.8105C6.23438 22.6855 9 23.8105 12 23.8105C18.4219 23.8105 23.625 18.6543 23.625 12.2324C23.625 5.81055 18.5156 0.654297 12.0938 0.607422C8.625 0.560547 5.48438 2.06055 3.375 4.45117V0.748047C3.375 0.466797 3.09375 0.185547 2.8125 0.185547H0.5625C0.234375 0.185547 0 0.466797 0 0.748047V10.1699C0 10.4512 0.234375 10.7324 0.5625 10.7324H9.9375Z" fill="#024E82"/>
</svg>
