<svg width="30" height="25" viewBox="0 0 30 25" fill="none" xmlns="http://www.w3.org/2000/svg">
<path d="M29.25 16.6855H28.5V11.623C28.5 11.0605 28.2188 10.4512 27.7969 10.0293L23.1562 5.38867C22.7344 4.9668 22.125 4.68555 21.5625 4.68555H19.5V2.43555C19.5 1.2168 18.4688 0.185547 17.25 0.185547H5.25C3.98438 0.185547 3 1.2168 3 2.43555V4.68555H0.375C0.140625 4.68555 0 4.87305 0 5.06055V5.81055C0 6.04492 0.140625 6.18555 0.375 6.18555H13.125C13.3125 6.18555 13.5 6.37305 13.5 6.56055V7.31055C13.5 7.54492 13.3125 7.68555 13.125 7.68555H1.875C1.64062 7.68555 1.5 7.87305 1.5 8.06055V8.81055C1.5 9.04492 1.64062 9.18555 1.875 9.18555H11.625C11.8125 9.18555 12 9.37305 12 9.56055V10.3105C12 10.5449 11.8125 10.6855 11.625 10.6855H0.375C0.140625 10.6855 0 10.873 0 11.0605V11.8105C0 12.0449 0.140625 12.1855 0.375 12.1855H10.125C10.3125 12.1855 10.5 12.373 10.5 12.5605V13.3105C10.5 13.5449 10.3125 13.6855 10.125 13.6855H3V19.6855C3 22.1699 5.01562 24.1855 7.5 24.1855C9.98438 24.1855 12 22.1699 12 19.6855H18C18 22.1699 20.0156 24.1855 22.5 24.1855C24.9844 24.1855 27 22.1699 27 19.6855H29.25C29.625 19.6855 30 19.3574 30 18.9355V17.4355C30 17.0605 29.625 16.6855 29.25 16.6855ZM7.5 21.9355C6.23438 21.9355 5.25 20.9512 5.25 19.6855C5.25 18.4668 6.23438 17.4355 7.5 17.4355C8.71875 17.4355 9.75 18.4668 9.75 19.6855C9.75 20.9512 8.71875 21.9355 7.5 21.9355ZM22.5 21.9355C21.2344 21.9355 20.25 20.9512 20.25 19.6855C20.25 18.4668 21.2344 17.4355 22.5 17.4355C23.7188 17.4355 24.75 18.4668 24.75 19.6855C24.75 20.9512 23.7188 21.9355 22.5 21.9355ZM26.25 12.1855H19.5V6.93555H21.5625L26.25 11.623V12.1855Z" fill="#024E82"/>
</svg>
