<svg width="24" height="24" viewBox="0 0 24 24" fill="none" xmlns="http://www.w3.org/2000/svg">
<path d="M12 0.560547C5.57812 0.560547 0.375 5.81055 0.375 12.1855C0.375 18.6074 5.57812 23.8105 12 23.8105C18.375 23.8105 23.625 18.6074 23.625 12.1855C23.625 5.81055 18.375 0.560547 12 0.560547ZM20.1094 6.18555L17.1562 9.13867C16.6406 8.29492 15.8906 7.54492 15.0469 7.0293L18 4.07617C18.7969 4.68555 19.5 5.38867 20.1094 6.18555ZM12 16.6855C9.46875 16.6855 7.5 14.7168 7.5 12.1855C7.5 9.70117 9.46875 7.68555 12 7.68555C14.4844 7.68555 16.5 9.70117 16.5 12.1855C16.5 14.7168 14.4844 16.6855 12 16.6855ZM5.95312 4.07617L8.90625 7.0293C8.0625 7.54492 7.3125 8.29492 6.79688 9.13867L3.84375 6.18555C4.45312 5.38867 5.15625 4.68555 5.95312 4.07617ZM3.84375 18.2324L6.79688 15.2793C7.3125 16.123 8.0625 16.873 8.90625 17.3887L5.95312 20.3418C5.15625 19.7324 4.45312 19.0293 3.84375 18.2324ZM18 20.3418L15.0469 17.3887C15.8906 16.873 16.6406 16.123 17.1562 15.2793L20.1094 18.2324C19.5 19.0293 18.7969 19.7324 18 20.3418Z" fill="#024E82"/>
</svg>
